<svg xmlns="http://www.w3.org/2000/svg" width="1200" height="640" viewBox="0 0 1200 640" font-family="system-ui, -apple-system, sans-serif">
  <defs>
    <linearGradient id="bg" x1="0" y1="0" x2="1" y2="1">
      <stop offset="0" stop-color="#0f172a"/><stop offset="1" stop-color="#1e293b"/>
    </linearGradient>
    <marker id="arr" viewBox="0 0 10 10" refX="8" refY="5" markerWidth="8" markerHeight="8" orient="auto">
      <path d="M 0 1 L 9 5 L 0 9 z" fill="#94a3b8"/>
    </marker>
  </defs>
  <rect x="0" y="0" width="1200" height="640" rx="16" fill="url(#bg)"/>
  <text x="600" y="52" text-anchor="middle" font-size="26" font-weight="700" fill="#ffffff">Inside the box: from embedding to activation</text>

  <rect x="140" y="86" width="110" height="46" rx="23" fill="rgba(56,189,248,0.16)" stroke="#38bdf8" stroke-width="2"/>
  <text x="195" y="116" text-anchor="middle" font-size="21" font-weight="700" fill="#ffffff">bank</text>
  <line x1="250" y1="109" x2="296" y2="109" stroke="#94a3b8" stroke-width="2" marker-end="url(#arr)"/>
  <g font-family="ui-monospace, Menlo, monospace" font-size="16" fill="#e2e8f0" text-anchor="middle">
    <rect x="300" y="86" width="56" height="46" rx="7" fill="rgba(255,255,255,0.06)" stroke="rgba(255,255,255,0.18)"/><text x="328" y="115">0.31</text>
    <rect x="362" y="86" width="56" height="46" rx="7" fill="rgba(255,255,255,0.06)" stroke="rgba(255,255,255,0.18)"/><text x="390" y="115">-1.20</text>
    <rect x="424" y="86" width="56" height="46" rx="7" fill="rgba(255,255,255,0.06)" stroke="rgba(255,255,255,0.18)"/><text x="452" y="115">0.05</text>
    <rect x="486" y="86" width="56" height="46" rx="7" fill="rgba(255,255,255,0.06)" stroke="rgba(255,255,255,0.18)"/><text x="514" y="115">2.74</text>
    <text x="566" y="115" font-size="19" fill="rgba(255,255,255,0.4)">…</text>
  </g>
  <text x="360" y="156" text-anchor="middle" font-size="13" letter-spacing="2" fill="#7dd3fc">ONE EMBEDDING · SAME EVERY TIME</text>

  <line x1="360" y1="166" x2="310" y2="214" stroke="#94a3b8" stroke-width="2" marker-end="url(#arr)"/>
  <line x1="360" y1="166" x2="890" y2="214" stroke="#94a3b8" stroke-width="2" marker-end="url(#arr)"/>

  <rect x="130" y="220" width="360" height="50" rx="12" fill="rgba(56,189,248,0.10)" stroke="rgba(56,189,248,0.5)" stroke-width="1.5"/>
  <text x="310" y="251" text-anchor="middle" font-size="19" fill="#ffffff">“I sat by the <tspan fill="#7dd3fc" font-weight="700">river</tspan> bank”</text>
  <rect x="710" y="220" width="360" height="50" rx="12" fill="rgba(245,158,11,0.10)" stroke="rgba(245,158,11,0.5)" stroke-width="1.5"/>
  <text x="890" y="251" text-anchor="middle" font-size="19" fill="#ffffff">“deposited <tspan fill="#fcd34d" font-weight="700">cash</tspan> at the bank”</text>

  <text x="600" y="470" text-anchor="middle" font-size="22" fill="#fde68a">The same vector drops into two different sentences.</text>
</svg>
