<svg xmlns="http://www.w3.org/2000/svg" width="1200" height="580" viewBox="0 0 1200 580" font-family="system-ui, -apple-system, sans-serif">
<defs>
    <linearGradient id="nt-bg" x1="0" y1="0" x2="1" y2="1">
      <stop offset="0" stop-color="#0f172a"/><stop offset="1" stop-color="#1e293b"/>
    </linearGradient>
    <marker id="nt-arr" viewBox="0 0 10 10" refX="8" refY="5" markerWidth="8" markerHeight="8" orient="auto">
      <path d="M 0 1 L 9 5 L 0 9 z" fill="#94a3b8"/>
    </marker>
  </defs>
  <rect x="0" y="0" width="1200" height="580" rx="16" fill="url(#nt-bg)"/>
  <text x="600" y="50" text-anchor="middle" font-size="34" font-weight="700" fill="#ffffff">It never looks anything up</text>
  <text x="600" y="84" text-anchor="middle" font-size="18" fill="rgba(255,255,255,0.62)">Every step: turn the context into odds over the next word - then sample one.</text>
<rect x="50" y="150" width="310" height="56" rx="12" fill="rgba(255,255,255,0.06)" stroke="rgba(255,255,255,0.2)" stroke-width="1.5"/>
  <text x="205" y="184" text-anchor="middle" font-size="17" fill="#ffffff">"The capital of France is &#8594;"</text>
  <line x1="430" y1="232" x2="760" y2="232" stroke="rgba(255,255,255,0.25)" stroke-width="1.5"/>
  <rect x="448" y="132" width="44" height="100" fill="#22c55e"/>
  <text x="470" y="124" text-anchor="middle" font-size="13" fill="#86efac">0.93</text>
  <text x="470" y="250" text-anchor="middle" font-size="13" fill="rgba(255,255,255,0.8)">Paris</text>
  <rect x="512" y="214" width="44" height="18" fill="#64748b"/>
  <rect x="576" y="221" width="44" height="11" fill="#64748b"/>
  <rect x="640" y="224" width="44" height="8" fill="#64748b"/>
  <text x="706" y="230" font-size="16" fill="rgba(255,255,255,0.4)">…</text>
  <line x1="775" y1="180" x2="835" y2="180" stroke="#94a3b8" stroke-width="2.5" marker-end="url(#nt-arr)"/>
  <rect x="848" y="152" width="180" height="56" rx="12" fill="rgba(34,197,94,0.16)" stroke="#22c55e" stroke-width="2"/>
  <text x="938" y="186" text-anchor="middle" font-size="19" font-weight="700" fill="#ffffff">"Paris"</text>
  <text x="1044" y="186" font-size="15" fill="#86efac">true ✓</text>
</svg>
