<svg xmlns="http://www.w3.org/2000/svg" width="1200" height="600" viewBox="0 0 1200 600" font-family="system-ui, -apple-system, sans-serif">
  <defs>
    <linearGradient id="pc-bg" x1="0" y1="0" x2="1" y2="1">
      <stop offset="0" stop-color="#0f172a"/>
      <stop offset="1" stop-color="#1e293b"/>
    </linearGradient>
  </defs>
  <rect x="0" y="0" width="1200" height="600" rx="16" fill="url(#pc-bg)"/>

  
  <rect x="110" y="70" width="980" height="460" rx="16" fill="#ffffff"/>
  
  <path d="M110 86 a16 16 0 0 1 16 -16 h948 a16 16 0 0 1 16 16 v34 h-980 z" fill="#eef2f6"/>
  <circle cx="140" cy="103" r="7" fill="#f87171"/>
  <circle cx="162" cy="103" r="7" fill="#fbbf24"/>
  <circle cx="184" cy="103" r="7" fill="#34d399"/>
  <rect x="360" y="92" width="480" height="24" rx="12" fill="#ffffff" stroke="#e2e8f0"/>
  <text x="600" y="109" text-anchor="middle" font-size="14" fill="#94a3b8">app.yourproduct.com / billing</text>

  
  <rect x="110" y="120" width="190" height="410" fill="#f8fafc"/>
  <rect x="130" y="150" width="150" height="18" rx="9" fill="#c7d2fe"/>
  <rect x="130" y="186" width="150" height="18" rx="9" fill="#e2e8f0"/>
  <rect x="130" y="222" width="150" height="18" rx="9" fill="#e2e8f0"/>
  <rect x="130" y="258" width="150" height="18" rx="9" fill="#e2e8f0"/>
  <rect x="130" y="294" width="150" height="18" rx="9" fill="#e2e8f0"/>

  
  <rect x="330" y="150" width="340" height="120" rx="12" fill="#ffffff" stroke="#e8edf3"/>
  <rect x="352" y="172" width="120" height="14" rx="7" fill="#cbd5e1"/>
  <rect x="352" y="204" width="220" height="26" rx="6" fill="#eef2f6"/>
  <rect x="690" y="150" width="340" height="120" rx="12" fill="#ffffff" stroke="#e8edf3"/>
  <rect x="712" y="172" width="120" height="14" rx="7" fill="#cbd5e1"/>
  <rect x="712" y="204" width="220" height="26" rx="6" fill="#eef2f6"/>
  
  <rect x="330" y="292" width="700" height="218" rx="12" fill="#ffffff" stroke="#e8edf3"/>
  <rect x="352" y="314" width="140" height="14" rx="7" fill="#cbd5e1"/>
  <g fill="#c7d2fe">
    <rect x="360" y="430" width="40" height="55" rx="4"/>
    <rect x="420" y="400" width="40" height="85" rx="4"/>
    <rect x="480" y="360" width="40" height="125" rx="4"/>
    <rect x="540" y="412" width="40" height="73" rx="4"/>
    <rect x="600" y="380" width="40" height="105" rx="4"/>
    <rect x="660" y="345" width="40" height="140" rx="4"/>
  </g>

  
  <rect x="760" y="300" width="256" height="210" rx="16" fill="#ffffff" stroke="#e2e8f0" stroke-width="1.5"/>
  <path d="M760 316 a16 16 0 0 1 16 -16 h224 a16 16 0 0 1 16 16 v30 h-256 z" fill="#2563eb"/>
  <circle cx="784" cy="315" r="6" fill="#34d399"/>
  <text x="800" y="321" font-size="15" font-weight="700" fill="#ffffff">Support</text>
  <rect x="776" y="362" width="200" height="62" rx="12" fill="#eef2f6"/>
  <text x="792" y="386" font-size="13" fill="#334155">Hi! Ask me anything</text>
  <text x="792" y="406" font-size="13" fill="#334155">about your plan or billing.</text>
  <rect x="776" y="440" width="200" height="34" rx="17" fill="#f1f5f9" stroke="#e2e8f0"/>
  <text x="792" y="462" font-size="13" fill="#94a3b8">Type a message…</text>

  
  <circle cx="1044" cy="500" r="34" fill="#2563eb"/>
  <path d="M1028 492 h32 a4 4 0 0 1 4 4 v12 a4 4 0 0 1 -4 4 h-18 l-10 8 v-8 h-4 a4 4 0 0 1 -4 -4 v-12 a4 4 0 0 1 4 -4 z" fill="#ffffff"/>

  
  <rect x="752" y="292" width="272" height="226" rx="20" fill="none" stroke="#fbbf24" stroke-width="2" stroke-dasharray="7 6" opacity="0.8"/>
</svg>
